# xmcd
# Track frame offsets:
# 150
# 8880
# 19707
# 40375
# 58652
# 71955
# 77815
# 108502
# 121665
# 133292
# 149482
# 173387
# 197255
# 208147
# 224050
# 240085
# 255112
# 284715
#
# Disc length: 4030 seconds
# Revision: 0
# Processed by: cddbd v1.4PL0 Copyright (c) Steve Scherf et al.
# Submitted via: VisiTrax 2.9.3.171 - For more info visit www.synapsa.com
#
DISCID=080fbc12
DTITLE=Various Artist - Blues Apostles - Disc 3
DYEAR=1900
DGENRE=
TTITLE0=Country Hat
TTITLE1=Everyday
TTITLE2=Reap What I've Sowed
TTITLE3=Brief Case
TTITLE4=Alright Blue?
TTITLE5=Country Hat Reprise
TTITLE6=Seventh Son
TTITLE7=Please Don't Help Me
TTITLE8=Morning Noon And Night
TTITLE9=Long Lovin' Man
TTITLE10=Louisiana Blues
TTITLE11=Cut You Loose
TTITLE12=Lovin' Machine
TTITLE13=Hey Mama
TTITLE14=Shoot Her If She Runs
TTITLE15=Towards The Sun
TTITLE16=Come On In My Kitchen
TTITLE17=Spoonful
EXTD=AKARMA AK 144/4.
EXTT0=
EXTT1=
EXTT2=
EXTT3=
EXTT4=
EXTT5=
EXTT6=
EXTT7=
EXTT8=
EXTT9=
EXTT10=
EXTT11=
EXTT12=
EXTT13=
EXTT14=
EXTT15=
EXTT16=
EXTT17=
PLAYORDER=
